<svg width="24" height="18" viewBox="0 0 24 18" fill="none" xmlns="http://www.w3.org/2000/svg">
<path d="M0 3H20.5C21.6046 3 22.5 3.89543 22.5 5V16C22.5 17.1046 21.6046 18 20.5 18H2C0.89543 18 0 17.1046 0 16V3Z" fill="#FF9F01"/>
<path d="M1.5 9.5C1.5 8.39543 2.39543 7.5 3.5 7.5H24V16C24 17.1046 23.1046 18 22 18H1.5V9.5Z" fill="#FFCA28"/>
<path d="M14.852 5.90941C15.612 5.01529 16.7263 4.5 17.8998 4.5H21C22.6569 4.5 24 5.84315 24 7.5H13.5L14.852 5.90941Z" fill="#FFCA28"/>
<path d="M0 3C0 1.34315 1.34315 0 3 0H6.01855C7.1525 0 8.23316 0.481286 8.99173 1.32414L10.5 3H0Z" fill="#FF9F01"/>
<rect x="0.5" y="9.5" width="23" height="3" rx="1.5" fill="#D9D9D9" stroke="#757575"/>
<line x1="5.5" y1="12" x2="5.5" y2="10" stroke="#757575"/>
<line x1="8.5" y1="12" x2="8.5" y2="10" stroke="#757575"/>
<line x1="11.5" y1="12" x2="11.5" y2="10" stroke="#757575"/>
<line x1="14.5" y1="12" x2="14.5" y2="10" stroke="#757575"/>
<line x1="17.5" y1="12" x2="17.5" y2="10" stroke="#757575"/>
<line x1="20.5" y1="12" x2="20.5" y2="10" stroke="#757575"/>
<rect x="1.5" y="10.5" width="3" height="5" rx="0.5" fill="#D9D9D9" stroke="#757575"/>
<line x1="2" y1="12.5" x2="4" y2="12.5" stroke="#757575"/>
</svg>
