<svg width="18" height="24" viewBox="0 0 18 24" fill="none" xmlns="http://www.w3.org/2000/svg">
<path d="M1.09091 0C0.575284 0 0 0.575284 0 1.09091V22.9091C0 23.3949 0.605114 24 1.09091 24H16.3636C16.8494 24 17.446 23.3949 17.4545 22.9091V6.54545L10.9091 0H1.09091Z" fill="#DCDCDC"/>
<path d="M12 6.54547L17.4545 12V6.54547H12Z" fill="black" fill-opacity="0.196078"/>
<path d="M10.9091 0L17.4545 6.54545H12C11.5142 6.54545 10.9091 5.94034 10.9091 5.45455V0Z" fill="white" fill-opacity="0.392157"/>
<path d="M7.3125 17.2969V16.8686C7.3125 16.2486 7.44034 15.7436 7.67898 15.3495C7.92614 14.9489 8.38849 14.5206 9.04687 14.0774C9.97798 13.4723 10.5597 13.0078 10.7983 12.7053C11.0455 12.3963 11.1648 12.032 11.1648 11.5952C11.1648 11.054 10.9411 10.6385 10.4872 10.3509C10.0504 10.0483 9.40696 9.9013 8.5696 9.9013C8.02841 9.9013 7.51278 9.9567 6.99503 10.0568C6.4858 10.1463 5.90412 10.3296 5.24361 10.5831L4.64062 9.51565C5.92969 8.99363 7.27415 8.72729 8.67401 8.72729C9.97159 8.72729 10.9815 8.98085 11.706 9.47303C12.4304 9.97161 12.7884 10.6747 12.7884 11.5824C12.7884 11.9617 12.7159 12.3047 12.5817 12.6009C12.4538 12.897 12.2621 13.1698 12 13.4382C11.7443 13.6982 11.1882 14.1115 10.3295 14.6953C9.63707 15.1534 9.18324 15.5327 8.95952 15.8352C8.73793 16.1293 8.63352 16.5384 8.63352 17.037V17.2969H7.3125ZM6.81179 19.6577C6.81179 18.9354 7.22514 18.5753 8.03693 18.5753C8.43537 18.5753 8.73793 18.6669 8.95312 18.8566C9.16619 19.0398 9.27912 19.3083 9.27912 19.6577C9.27912 19.9965 9.16619 20.2564 8.95312 20.4524C8.7294 20.6357 8.42685 20.7273 8.03693 20.7273C7.6875 20.7273 7.39347 20.6421 7.16122 20.4823C6.93111 20.3118 6.81179 20.0391 6.81179 19.6577Z" fill="#888888"/>
</svg>
